<svg width="37" height="45" viewBox="0 0 37 45" fill="none" xmlns="http://www.w3.org/2000/svg">
<path d="M10.4941 6.34473C10.4941 7.31999 10.3301 8.1722 10.002 8.90137C9.67383 9.62598 9.20898 10.1797 8.60742 10.5625C8.00586 10.9453 7.30404 11.1367 6.50195 11.1367C5.7181 11.1367 5.02311 10.9453 4.41699 10.5625C3.81087 10.1751 3.33919 9.62598 3.00195 8.91504C2.66927 8.19954 2.49837 7.3724 2.48926 6.43359V5.71582C2.48926 4.75879 2.6556 3.91341 2.98828 3.17969C3.32096 2.44596 3.79036 1.88542 4.39648 1.49805C5.00716 1.10612 5.70443 0.910156 6.48828 0.910156C7.28581 0.910156 7.98763 1.10384 8.59375 1.49121C9.20443 1.87402 9.67383 2.43229 10.002 3.16602C10.3301 3.89518 10.4941 4.74512 10.4941 5.71582V6.34473ZM9.18848 5.70215C9.18848 4.52181 8.9515 3.61719 8.47754 2.98828C8.00358 2.35482 7.34049 2.03809 6.48828 2.03809C5.65885 2.03809 5.00488 2.35482 4.52637 2.98828C4.05241 3.61719 3.80859 4.49219 3.79492 5.61328V6.34473C3.79492 7.48861 4.03418 8.38867 4.5127 9.04492C4.99577 9.69661 5.65885 10.0225 6.50195 10.0225C7.34961 10.0225 8.00586 9.71484 8.4707 9.09961C8.93555 8.47982 9.1748 7.59342 9.18848 6.44043V5.70215ZM18.5127 7.38379C18.5127 8.50944 18.2552 9.41634 17.7402 10.1045C17.2253 10.7926 16.528 11.1367 15.6484 11.1367C14.7507 11.1367 14.0443 10.8519 13.5293 10.2822V13.8438H12.2646V3.60352H13.4199L13.4814 4.42383C13.9964 3.78581 14.7119 3.4668 15.6279 3.4668C16.5166 3.4668 17.2184 3.80176 17.7334 4.47168C18.2529 5.1416 18.5127 6.07357 18.5127 7.26758V7.38379ZM17.248 7.24023C17.248 6.40625 17.0703 5.74772 16.7148 5.26465C16.3594 4.78158 15.8717 4.54004 15.252 4.54004C14.4863 4.54004 13.9121 4.87956 13.5293 5.55859V9.09277C13.9076 9.76725 14.4863 10.1045 15.2656 10.1045C15.8717 10.1045 16.3525 9.86523 16.708 9.38672C17.068 8.90365 17.248 8.18815 17.248 7.24023ZM23.1953 11.1367C22.1927 11.1367 21.377 10.8086 20.748 10.1523C20.1191 9.49154 19.8047 8.6097 19.8047 7.50684V7.27441C19.8047 6.54069 19.9437 5.88672 20.2217 5.3125C20.5042 4.73372 20.8962 4.28255 21.3975 3.95898C21.9033 3.63086 22.4502 3.4668 23.0381 3.4668C23.9997 3.4668 24.7471 3.78353 25.2803 4.41699C25.8135 5.05046 26.0801 5.95736 26.0801 7.1377V7.66406H21.0693C21.0876 8.39323 21.2995 8.9834 21.7051 9.43457C22.1152 9.88118 22.6348 10.1045 23.2637 10.1045C23.7103 10.1045 24.0885 10.0133 24.3984 9.83105C24.7083 9.64876 24.9795 9.40723 25.2119 9.10645L25.9844 9.70801C25.3646 10.6605 24.4349 11.1367 23.1953 11.1367ZM23.0381 4.50586C22.5277 4.50586 22.0993 4.69271 21.7529 5.06641C21.4066 5.43555 21.1924 5.95508 21.1104 6.625H24.8154V6.5293C24.779 5.88672 24.6058 5.38997 24.2959 5.03906C23.986 4.68359 23.5667 4.50586 23.0381 4.50586ZM28.7461 3.60352L28.7871 4.5332C29.3522 3.82227 30.0905 3.4668 31.002 3.4668C32.5651 3.4668 33.3535 4.34863 33.3672 6.1123V11H32.1025V6.10547C32.098 5.57227 31.9749 5.17806 31.7334 4.92285C31.4964 4.66764 31.125 4.54004 30.6191 4.54004C30.209 4.54004 29.849 4.64941 29.5391 4.86816C29.2292 5.08691 28.9876 5.37402 28.8145 5.72949V11H27.5498V3.60352H28.7461ZM16.6807 24.4023H12.5107L11.5742 27H10.2207L14.0215 17.0469H15.1699L18.9775 27H17.6309L16.6807 24.4023ZM12.9072 23.3223H16.291L14.5957 18.667L12.9072 23.3223ZM21.4932 27H20.2285V16.5H21.4932V27ZM24.8975 27H23.6328V16.5H24.8975V27ZM3.51465 38.2612H1.34375V42H0.118652V32.7578H3.17822C4.21924 32.7578 5.01904 32.9948 5.57764 33.4688C6.14046 33.9427 6.42188 34.6325 6.42188 35.5381C6.42188 36.1136 6.2653 36.6151 5.95215 37.0425C5.64323 37.4699 5.21159 37.7894 4.65723 38.001L6.82812 41.9238V42H5.52051L3.51465 38.2612ZM1.34375 37.2646H3.21631C3.82145 37.2646 4.30176 37.1081 4.65723 36.7949C5.01693 36.4818 5.19678 36.0628 5.19678 35.5381C5.19678 34.9668 5.02539 34.5288 4.68262 34.2241C4.34408 33.9194 3.85319 33.765 3.20996 33.7607H1.34375V37.2646ZM10.8018 42.127C9.87077 42.127 9.11328 41.8223 8.5293 41.2129C7.94531 40.5993 7.65332 39.7804 7.65332 38.7563V38.5405C7.65332 37.8592 7.78239 37.252 8.04053 36.7188C8.3029 36.1813 8.66683 35.7624 9.13232 35.4619C9.60205 35.1572 10.1099 35.0049 10.6558 35.0049C11.5487 35.0049 12.2427 35.299 12.7378 35.8872C13.2329 36.4754 13.4805 37.3175 13.4805 38.4136V38.9023H8.82764C8.84456 39.5794 9.04134 40.1274 9.41797 40.5464C9.79883 40.9611 10.2812 41.1685 10.8652 41.1685C11.2799 41.1685 11.6312 41.0838 11.9189 40.9146C12.2067 40.7453 12.4585 40.521 12.6743 40.2417L13.3916 40.8003C12.8161 41.6847 11.9528 42.127 10.8018 42.127ZM10.6558 35.9697C10.1818 35.9697 9.78402 36.1432 9.4624 36.4902C9.14079 36.833 8.94189 37.3154 8.86572 37.9375H12.3062V37.8486C12.2723 37.252 12.1115 36.7907 11.8237 36.4648C11.536 36.1348 11.1466 35.9697 10.6558 35.9697ZM16.1211 42H14.9468V32.25H16.1211V42ZM22.2466 42C22.1789 41.8646 22.1239 41.6234 22.0815 41.2764C21.5356 41.8434 20.884 42.127 20.1265 42.127C19.4494 42.127 18.8929 41.9365 18.457 41.5557C18.0254 41.1706 17.8096 40.6839 17.8096 40.0957C17.8096 39.3805 18.0804 38.8262 18.6221 38.4326C19.168 38.0348 19.9339 37.8359 20.9199 37.8359H22.0625V37.2964C22.0625 36.8859 21.9398 36.5601 21.6943 36.3188C21.4489 36.0734 21.0871 35.9507 20.6089 35.9507C20.1899 35.9507 19.8387 36.0565 19.5552 36.2681C19.2716 36.4797 19.1299 36.7357 19.1299 37.0361H17.9492C17.9492 36.6934 18.0698 36.3633 18.311 36.0459C18.5565 35.7243 18.8866 35.4704 19.3013 35.2842C19.7202 35.098 20.1794 35.0049 20.6787 35.0049C21.4701 35.0049 22.09 35.2038 22.5386 35.6016C22.9871 35.9951 23.2199 36.5389 23.2368 37.2329V40.394C23.2368 41.0246 23.3172 41.526 23.478 41.8984V42H22.2466ZM20.2979 41.105C20.666 41.105 21.0151 41.0098 21.3452 40.8193C21.6753 40.6289 21.9144 40.3813 22.0625 40.0767V38.6675H21.1421C19.7033 38.6675 18.9839 39.0885 18.9839 39.9307C18.9839 40.2988 19.1066 40.5866 19.3521 40.7939C19.5975 41.0013 19.9128 41.105 20.2979 41.105ZM27.2231 40.2798L28.8228 35.1318H30.0796L27.3184 43.0601C26.891 44.2026 26.2118 44.7739 25.2808 44.7739L25.0586 44.7549L24.6206 44.6724V43.7202L24.938 43.7456C25.3358 43.7456 25.6447 43.6652 25.8647 43.5044C26.089 43.3436 26.2731 43.0495 26.417 42.6221L26.6772 41.9238L24.2271 35.1318H25.5093L27.2231 40.2798ZM35.1323 40.1782C35.1323 39.8608 35.0117 39.6154 34.7705 39.4419C34.5335 39.2642 34.1167 39.1118 33.52 38.9849C32.9276 38.8579 32.4557 38.7056 32.1045 38.5278C31.7575 38.3501 31.4993 38.1385 31.3301 37.8931C31.165 37.6476 31.0825 37.3556 31.0825 37.0171C31.0825 36.4543 31.3195 35.9782 31.7935 35.5889C32.2716 35.1995 32.881 35.0049 33.6216 35.0049C34.4002 35.0049 35.0308 35.2059 35.5132 35.6079C35.9998 36.0099 36.2432 36.5241 36.2432 37.1504H35.0625C35.0625 36.8288 34.925 36.5516 34.6499 36.3188C34.3791 36.0861 34.0363 35.9697 33.6216 35.9697C33.1942 35.9697 32.8599 36.0628 32.6187 36.249C32.3774 36.4352 32.2568 36.6785 32.2568 36.979C32.2568 37.2625 32.369 37.4762 32.5933 37.6201C32.8175 37.764 33.2217 37.9015 33.8057 38.0327C34.3939 38.1639 34.87 38.3205 35.2339 38.5024C35.5978 38.6844 35.8665 38.9045 36.04 39.1626C36.2178 39.4165 36.3066 39.7275 36.3066 40.0957C36.3066 40.7093 36.0612 41.2023 35.5703 41.5747C35.0794 41.9429 34.4425 42.127 33.6597 42.127C33.1095 42.127 32.6229 42.0296 32.1997 41.835C31.7765 41.6403 31.4443 41.3695 31.2031 41.0225C30.9661 40.6712 30.8477 40.2925 30.8477 39.8862H32.022C32.0431 40.2798 32.1997 40.5929 32.4917 40.8257C32.7879 41.0542 33.1772 41.1685 33.6597 41.1685C34.104 41.1685 34.4595 41.0796 34.7261 40.9019C34.9969 40.7199 35.1323 40.4787 35.1323 40.1782Z" fill="black"/>
</svg>
